<?xml version="1.0" encoding="UTF-8" standalone="no"?>
<!DOCTYPE svg PUBLIC "-//W3C//DTD SVG 1.1//EN" "http://www.w3.org/Graphics/SVG/1.1/DTD/svg11.dtd">
<svg width="100%" height="100%" viewBox="0 0 775 300" version="1.1" xmlns="http://www.w3.org/2000/svg" xmlns:xlink="http://www.w3.org/1999/xlink" xml:space="preserve" xmlns:serif="http://www.serif.com/" style="fill-rule:evenodd;clip-rule:evenodd;stroke-linejoin:round;stroke-miterlimit:2;">
    <g transform="matrix(1,0,0,1,0.000217824,-4.6836e-05)">
        <g transform="matrix(1,0,0,1,-167.811,-412.5)">
            <g transform="matrix(0.290636,0,-0.0534337,0.236559,177.798,514.383)">
                <rect x="393.826" y="203.404" width="641.427" height="634.09" style="fill:rgb(255,0,0);"/>
            </g>
        </g>
        <g transform="matrix(1,0,0,1,-167.811,-412.5)">
            <g transform="matrix(0.290636,0,-0.0535566,0.236559,98.2041,364.383)">
                <rect x="393.826" y="203.404" width="641.427" height="634.09" style="fill:rgb(0,255,255);"/>
            </g>
        </g>
        <g transform="matrix(1,0,0,1,-167.811,-412.5)">
            <g transform="matrix(0.290636,0,-0.0535566,0.236559,138.033,439.383)">
                <rect x="393.826" y="203.404" width="641.427" height="634.09" style="fill:white;"/>
            </g>
        </g>
        <g transform="matrix(1,0,0,1,-167.811,-412.5)">
            <g transform="matrix(17.9275,0,0,17.8564,-8355.37,-3877.48)">
                <g transform="matrix(12,0,0,12,491.535,252.849)">
                    <path d="M0.257,-0.517L0.052,-0.517L0.089,-0.7L0.735,-0.7L0.698,-0.517L0.493,-0.517L0.39,-0L0.154,-0L0.257,-0.517Z" style="fill:white;fill-rule:nonzero;"/>
                </g>
                <g transform="matrix(12,0,0,12,499.383,252.849)">
                    <path d="M0.142,-0.7L0.458,-0.7C0.531,-0.7 0.595,-0.688 0.649,-0.664C0.702,-0.64 0.743,-0.606 0.772,-0.561C0.801,-0.516 0.815,-0.464 0.815,-0.403C0.815,-0.322 0.796,-0.252 0.759,-0.191C0.722,-0.13 0.67,-0.083 0.604,-0.05C0.537,-0.017 0.462,-0 0.377,-0L0.002,-0L0.142,-0.7ZM0.385,-0.184C0.446,-0.184 0.493,-0.203 0.527,-0.242C0.56,-0.28 0.577,-0.329 0.577,-0.389C0.577,-0.43 0.564,-0.461 0.54,-0.483C0.515,-0.505 0.478,-0.516 0.431,-0.516L0.341,-0.516L0.275,-0.184L0.385,-0.184Z" style="fill:white;fill-rule:nonzero;"/>
                </g>
                <g transform="matrix(12,0,0,12,509.295,252.849)">
                    <path d="M0.4,0.016C0.329,0.016 0.266,0.003 0.212,-0.024C0.157,-0.05 0.115,-0.087 0.086,-0.134C0.056,-0.181 0.041,-0.236 0.041,-0.297C0.041,-0.378 0.06,-0.451 0.098,-0.514C0.135,-0.577 0.188,-0.627 0.255,-0.663C0.321,-0.698 0.398,-0.716 0.483,-0.716C0.55,-0.716 0.61,-0.704 0.662,-0.68C0.714,-0.655 0.753,-0.621 0.778,-0.576L0.608,-0.443C0.577,-0.498 0.53,-0.525 0.468,-0.525C0.431,-0.525 0.399,-0.516 0.37,-0.498C0.341,-0.48 0.319,-0.455 0.303,-0.423C0.287,-0.39 0.279,-0.353 0.279,-0.312C0.279,-0.271 0.292,-0.238 0.319,-0.213C0.345,-0.188 0.38,-0.175 0.423,-0.175C0.482,-0.175 0.534,-0.202 0.579,-0.256L0.718,-0.123C0.677,-0.073 0.631,-0.037 0.58,-0.016C0.528,0.005 0.468,0.016 0.4,0.016Z" style="fill:white;fill-rule:nonzero;"/>
                </g>
            </g>
        </g>
    </g>
</svg>
